<svg viewBox="0 0 22 22" xmlns="http://www.w3.org/2000/svg" xml:space="preserve" style="fill-rule:evenodd;clip-rule:evenodd;stroke-linejoin:round;stroke-miterlimit:2"><path d="M5972.65 50.422c0-.642-.25-1.258-.71-1.713a2.396 2.396 0 0 0-1.71-.709h-17.15c-.65 0-1.26.255-1.72.709a2.443 2.443 0 0 0-.71 1.713v17.156c0 .642.26 1.258.71 1.713.46.454 1.07.709 1.72.709h17.15c.65 0 1.26-.255 1.71-.709.46-.455.71-1.071.71-1.713V50.422Zm-5.71 14.749c.55 0 1 .448 1 1s-.45 1-1 1c-.56 0-1-.448-1-1s.44-1 1-1Zm-9.55-1.704v-1.295a.436.436 0 0 0-.12-.288.413.413 0 0 0-.29-.12h-1.19a.39.39 0 0 0-.28.12.393.393 0 0 0-.12.288v1.295h-1.3c-.11 0-.21.043-.29.12a.436.436 0 0 0-.12.288v1.185c0 .108.05.212.12.288.08.077.18.12.29.12h1.3v1.295c0 .108.04.212.12.288.07.077.18.12.28.12h1.19c.11 0 .21-.043.29-.12.07-.076.12-.18.12-.288v-1.295h1.29a.413.413 0 0 0 .41-.408v-1.185a.413.413 0 0 0-.41-.408h-1.29Zm11.25 0a1.002 1.002 0 0 1 0 2.001 1.002 1.002 0 0 1 0-2.001Zm-3.41 0a1.002 1.002 0 0 1 0 2.001 1.002 1.002 0 0 1 0-2.001Zm1.71-1.703a1.002 1.002 0 0 1 0 2.001c-.56 0-1-.448-1-1.001 0-.552.44-1 1-1Zm3.71-10.868a.885.885 0 0 0-.26-.633.888.888 0 0 0-.63-.263h-16.21c-.24 0-.46.095-.63.263a.895.895 0 0 0-.27.633v7.176c0 .237.1.465.27.633.17.168.39.263.63.263h16.21c.24 0 .46-.095.63-.263a.885.885 0 0 0 .26-.633v-7.176Z" style="fill:#fff" transform="translate(-5950.65 -48)"/></svg>
