<svg viewBox="0 0 22 22" xmlns="http://www.w3.org/2000/svg" xml:space="preserve" style="fill-rule:evenodd;clip-rule:evenodd;stroke-linejoin:round;stroke-miterlimit:2"><path d="M.832 17.4c-.96.896-.845 3.166-.807 3.58.038.392.351.7.744.732.105.008.32.021.598.021.82 0 2.19-.119 2.933-.847.785-.852.986-2.583.053-3.557-.938-.928-2.684-.711-3.521.07v.001Zm2.305 2.357c-.207.203-.858.323-1.517.35.018-.625.122-1.29.346-1.548.3-.263 1.01-.31 1.231-.092.242.253.19 1.017-.06 1.291v-.001Z" style="fill:#fff;fill-rule:nonzero"/><path d="M18.196 13.445a11.673 11.673 0 0 0 2.97-11.433l-.003-.013A2.278 2.278 0 0 0 19.587.43l-.002-.001A11.646 11.646 0 0 0 8.226 3.406L1.989 9.643a2.909 2.909 0 0 0 0 4.091l5.914 5.914a2.906 2.906 0 0 0 4.09 0l6.203-6.203Zm-1.415-1.414-6.202 6.202a.89.89 0 0 1-1.262 0l-5.914-5.914a.896.896 0 0 1 0-1.261L9.641 4.82a9.641 9.641 0 0 1 9.405-2.465l.002.001a.277.277 0 0 1 .191.19l.003.012a9.667 9.667 0 0 1-2.461 9.473Zm-4.571.152c.657 0 1.299-.314 1.91-.935.703-.714 1.637-2.161 0-3.822-.619-.629-1.239-.936-1.896-.936-.657 0-1.3.315-1.911.935-.703.714-1.637 2.16 0 3.823.619.629 1.239.935 1.896.935h.001ZM6.375 4.332a3.478 3.478 0 0 0-1.383-.286 3.576 3.576 0 0 0-3.557 3.557c0 .48.098.951.286 1.383l4.654-4.654Zm10.894 10.965-4.568 4.568.958.256a3.576 3.576 0 0 0 3.865-3.543l-.255-1.281Z" style="fill:#fff"/></svg>
