<svg viewBox="0 0 22 22" xmlns="http://www.w3.org/2000/svg" xml:space="preserve" style="fill-rule:evenodd;clip-rule:evenodd;stroke-linejoin:round;stroke-miterlimit:2"><path d="M21.6 7.43c0-.593-.319-1.149-.855-1.492L11.994.332a2.172 2.172 0 0 0-2.309.001L.852 6.012C.317 6.356 0 6.911 0 7.502v12.289c0 1.062.957 1.923 2.137 1.923h17.326c1.18 0 2.137-.861 2.137-1.923V7.43ZM2.568 7.367a.723.723 0 0 0-.345.604v11.001c0 .196.087.385.242.524a.873.873 0 0 0 .583.218h15.504a.873.873 0 0 0 .583-.218.705.705 0 0 0 .242-.524V7.899a.72.72 0 0 0-.347-.604l-7.71-4.94a.902.902 0 0 0-.958.001L2.568 7.367Z" style="fill:#fff"/><path d="M16.262 11.67c.329-.329.494-.808.489-1.425-.006-.709-.263-1.901-1.914-1.913-.625-.005-1.089.151-1.418.48-.329.329-.493.809-.489 1.425.006.71.262 1.901 1.915 1.914.624.005 1.088-.152 1.417-.481Z" style="fill:#fff"/><path d="M16.262 11.67c.329-.329.494-.808.489-1.425-.006-.709-.263-1.901-1.914-1.913-.625-.005-1.089.151-1.418.48-.329.329-.493.809-.489 1.425.006.71.262 1.901 1.915 1.914.624.005 1.088-.152 1.417-.481ZM10.311 21.232c.329-.329.493-.808.488-1.425 0-.03.002-4.497 0-4.529-.027-.715-.333-1.808-1.913-1.819-.625-.005-1.089.151-1.418.48-.313.314-.478.764-.489 1.339v4.521c.006.71.262 1.901 1.914 1.914.625.005 1.089-.152 1.418-.481Z" style="fill:#fff"/></svg>
