<svg viewBox="0 0 530 334" xmlns="http://www.w3.org/2000/svg" xml:space="preserve" style="fill-rule:evenodd;clip-rule:evenodd;stroke-linejoin:round;stroke-miterlimit:2"><path d="M529.176 146.88c-10.987 0-19.893 8.907-19.893 19.894 0 10.987 8.906 19.893 19.893 19.893V146.88ZM284.481 333.547c0-10.987-8.906-19.893-19.893-19.893s-19.893 8.906-19.893 19.893h39.786ZM284.481 0c0 10.987-8.906 19.893-19.893 19.893S244.695 10.987 244.695 0h39.786ZM0 186.667c10.987 0 19.893-8.906 19.893-19.893S10.987 146.88 0 146.88v39.787ZM121.005 174.274a.338.338 0 0 1-.223-.072l-23.404-18.183a1.26 1.26 0 0 1-.487-.991l-.058-13.644a.8.8 0 0 1 .157-.481l9.354-12.7a.797.797 0 0 0-.247-1.165l-5.754-3.284a.677.677 0 0 1-.342-.588l.003-13.843c0-.331.097-.655.281-.931l18.488-27.885a.799.799 0 0 1 .59-.354l33.419-3.198c.86-.082 1.72.163 2.408.687l15.547 11.841a.65.65 0 0 0 1.042-.523l-.028-3.145a.298.298 0 0 1 .325-.301l39.273 3.415a.522.522 0 0 1 .477.53l-.133 6.644a.709.709 0 0 0 .623.717l25.522 3.072a.694.694 0 0 0 .778-.704l-.163-8.313a.541.541 0 0 1 .442-.542l43.589-8.131a.666.666 0 0 1 .446.072l21.321 11.759a.709.709 0 0 0 1.027-.435l2.661-9.807a.434.434 0 0 1 .492-.314l43.907 7.533a.506.506 0 0 0 .589-.498l-.017-3.356a.339.339 0 0 1 .287-.337l44.397-6.927a.531.531 0 0 1 .353.068l30.164 17.974a.388.388 0 0 1 .19.328l.147 10.865-5.727 33.501a.619.619 0 0 0 .207.574l9.136 7.833a.295.295 0 0 1 .102.218l.177 15.036a.34.34 0 0 1-.183.307l-27.264 14.291a.257.257 0 0 1-.262-.013l-16.046-10.53 7.373 11.22c.072.109.11.237.109.368l-.309 66.053a1.543 1.543 0 0 1-1.36 1.523l-54.823 6.462a.715.715 0 0 1-.727-.399l-9.061-18.748-1.461 18.835a.374.374 0 0 1-.395.343l-26.911-1.633a.556.556 0 0 1-.436-.258l-6.544-10.372-2.573 11.669a.568.568 0 0 1-.576.445l-33.76-1.231a.426.426 0 0 1-.411-.411l-.294-8.086-38.1 10.461a.649.649 0 0 1-.604-.143l-27.615-24.761a.877.877 0 0 0-1.199.028l-10.329 10.168a.302.302 0 0 1-.199.086l-15.235.629a.652.652 0 0 0-.624.612l-.761 12.723a.509.509 0 0 1-.512.479l-33.913-.275a.529.529 0 0 1-.525-.519l-.374-18.518.001-.016 4.225-63.161-9.66.357Zm144.37 60.293a1.36 1.36 0 0 1-.992-.52 1.363 1.363 0 0 1-.27-1.088l12.183-66.905a.799.799 0 0 1 .796-.655l13.058.181a.996.996 0 0 1 .845.492l12.618 21.49 1.629-21.114a.552.552 0 0 1 .209-.391.552.552 0 0 1 .429-.114l20.271 3.12c.44.068.753.461.721.905l-4.661 64.559a.907.907 0 0 1-.953.84l-16.914-.894a.892.892 0 0 1-.711-.422l-13.314-21.569-3.844 22.21a1.278 1.278 0 0 1-1.336 1.058l-19.764-1.183Zm-128.737-67.636a1.07 1.07 0 0 1 1.071-1.021l36.592.066c.192 0 .379.058.538.166l16.409 11.225a.997.997 0 0 1 .432.777l1.191 26.307a.924.924 0 0 1-.283.708l-16.25 15.558a.752.752 0 0 1-.489.209l-19.594.842a.98.98 0 0 0-.937.967l-.137 11.75a.794.794 0 0 1-.789.785l-19.758.138a1.073 1.073 0 0 1-1.079-1.122l3.083-67.355Zm196.49 13.336c.029-.342.204-.654.48-.857l19.816-14.518c.248-.182.552-.269.858-.246l22.602 1.673c.325.024.623.188.816.451l8.681 11.808a1.078 1.078 0 0 1-.332 1.574l-14.696 8.443a.79.79 0 0 1-.815-.016l-6.274-3.925-9.495 2.967-5.768 14.085 6.051 12.553 17.422-2.204a.965.965 0 0 0 .842-1.003l-.062-1.284a.878.878 0 0 0-.953-.834l-12.272 1.055 1.152-18.508 26.99.093a1.04 1.04 0 0 1 1.036 1.042l-.056 35.699a1.025 1.025 0 0 1-.891 1.014l-44.527 5.837a1.728 1.728 0 0 1-1.776-.955l-11.23-23.011a1.39 1.39 0 0 1-.136-.726l2.537-30.207Zm-135.211-1.356a.885.885 0 0 1 .384-.785l17.394-11.875c.185-.126.406-.191.63-.183l24.774.822c.295.01.571.146.758.374l20.182 24.688a.82.82 0 0 1 .174.658l-5.441 31.668a1.485 1.485 0 0 1-1.078 1.183l-34.887 9.374a1.206 1.206 0 0 1-1.09-.243l-25.943-21.853 5.536-4.995c.256-.232.393-.568.371-.913l-1.764-27.92Zm23.977 11.107-4.855 10.642 8.417 5.692 8.778-3.473-.147-10.276-12.193-2.585Zm-62.784-3.2-.733 11.643 6.917 1.129 6.848-9.483-13.032-3.289ZM360.6 92.5a.495.495 0 0 1 .008-.976l35.496-5.554c.27-.042.546.012.781.151l24.587 14.657c.477.285.731.832.64 1.38l-4.279 25.88a.75.75 0 0 1-.36.524l-11.675 6.837a.337.337 0 0 0-.051.549l18.858 16.313a.843.843 0 0 1-.218 1.414l-21.32 9.18c-.579.25-1.253.04-1.589-.494l-15.343-24.406a.456.456 0 0 0-.842.262l.906 22.009a1.297 1.297 0 0 1-1.184 1.346l-17.658 1.533a.81.81 0 0 1-.875-.72l-4.962-46.197a1.077 1.077 0 0 1 .011-.305l3.868-21.588a.947.947 0 0 0-.772-1.1L360.6 92.5Zm-115.162 2.533a.587.587 0 0 0-.476.613l.28 4.59a.897.897 0 0 0 .805.837l4.161.421a.878.878 0 0 1 .775 1.019l-3.234 18.963a.524.524 0 0 0-.003.148l5.039 40.318a.85.85 0 0 0 .94.739l18.397-2.109a.547.547 0 0 0 .485-.567l-.7-16.772a.448.448 0 0 1 .424-.466l17.15-.911a.405.405 0 0 0 .256-.11l14.343-13.481a.537.537 0 0 0 .164-.316l3.48-24.955a.83.83 0 0 0-.418-.839l-25.103-13.959a.864.864 0 0 0-.585-.094l-36.18 6.931Zm67.695-4.984a1.14 1.14 0 0 0-1.292.799l-1.658 5.585a.761.761 0 0 0 .37.887l2.973 1.596c.447.24.697.733.627 1.236l-4.238 30.355a.788.788 0 0 1-.236.459l-8.003 7.66 3.135 20.718a.65.65 0 0 0 .622.552l51.429 1.641a.686.686 0 0 0 .697-.779l-2.636-18.48a.418.418 0 0 0-.472-.353l-25.75 3.763-2.002-12.282 21.321 3.262 1.971-15.343-21.721-.323 2.837-11.527 23.428 7.108a.809.809 0 0 0 1.03-.628l3.181-17.302a.559.559 0 0 0-.453-.651l-45.16-7.953Zm-135.797 4.66a.753.753 0 0 1-.302-.711l.169-1.228a1.17 1.17 0 0 1 1.273-1.006l25.27 2.448a1.56 1.56 0 0 1 1.388 1.808l-7.271 43.579 20.1-.893-1.578-34.838a.843.843 0 0 1 .955-.873l25.646 3.451a1.426 1.426 0 0 1 1.219 1.652l-6.309 37.801c-.064.383-.234.74-.49 1.032l-11.848 13.486a2.622 2.622 0 0 1-2.04.89l-32.506-.867a2.086 2.086 0 0 1-1.349-.544l-15.319-13.944a.775.775 0 0 1-.253-.552l-.046-1.718a.499.499 0 0 1 .04-.213l4.342-10.179a3.93 3.93 0 0 0-1.133-4.59l-1.966-1.601a.674.674 0 0 1-.248-.567l1.148-18.425 4.422-5.628a4.174 4.174 0 0 0-.822-5.951l-2.492-1.819Zm-70.507 15.479a.437.437 0 0 1-.202-.281.435.435 0 0 1 .063-.34l15.727-23.436a.577.577 0 0 1 .423-.253l28.916-2.786c.258-.025.515.048.72.205l21.198 16.134a.93.93 0 0 1 .164 1.324l-10.174 12.746a.345.345 0 0 1-.464.069l-20.395-13.957-6.007 9.577 34.583 22.806a.565.565 0 0 1 .208.696l-11.64 26.961a.09.09 0 0 1-.079.053l-34.717.713a.095.095 0 0 1-.063-.022l-21.032-17.57a.602.602 0 0 1-.101-.816l11.514-15.799a.682.682 0 0 1 .986-.124l19.759 16.36 7.5-10.147-36.887-22.113Zm163.687-4.456a.687.687 0 0 0-.933.684l1.279 20.797a.537.537 0 0 0 .621.497l12.009-1.951a.541.541 0 0 0 .448-.452l2.02-13.285a.422.422 0 0 0-.265-.456l-15.179-5.834Zm113.935-1.817.289 23.313 13.381-2.403 2.271-15.14-15.941-5.77Z" style="fill:#000000;fill-opacity:.08"/></svg>