<svg viewBox="0 0 22 22" xmlns="http://www.w3.org/2000/svg" xml:space="preserve" style="fill-rule:evenodd;clip-rule:evenodd;stroke-linejoin:round;stroke-miterlimit:2"><g transform="matrix(.00498 0 0 .00687 -52.67 0)"><path style="fill:none" d="M10577.8 0h4418.81v3202.62H10577.8z"/><clipPath id="a"><path d="M10577.8 0h4418.81v3202.62H10577.8z"/></clipPath><g clip-path="url(#a)"><g opacity=".08"><path d="M13697.223 1362.002c0-37.813-28.066-73.267-75.224-95.14l-769.921-357.472c-62.027-28.184-141.121-28.184-203.148.064l-777.135 362.128c-47.07 21.935-74.96 57.325-74.96 95.011v783.621c0 67.72 84.198 122.622 188.015 122.622h1524.357c103.818 0 188.016-54.902 188.016-122.622v-788.212Zm-1674.453-4.017c-18.476 8.225-30.002 22.764-30.354 38.514v701.49c0 12.499 7.655 24.55 21.292 33.414 14.165 9.055 32.465 13.965 51.293 13.901h1364.056c18.828.064 37.128-4.846 51.293-13.9 13.373-8.418 21.115-20.597 21.291-33.414v-706.082c-.352-15.75-11.877-30.352-30.53-38.515l-678.332-315.004c-25.779-11.67-58.595-11.67-84.286.064l-685.723 319.532Z"/><path d="M13227.58 1632.37c28.946-20.979 43.463-51.523 43.023-90.867-.528-45.21-23.139-121.219-168.395-121.984-54.988-.319-95.811 9.629-124.757 30.608-28.946 20.979-43.375 51.586-43.023 90.866.528 45.274 23.051 121.22 168.484 122.049 54.9.318 95.723-9.693 124.669-30.672Z"/><path d="M13227.58 1632.37c28.946-20.979 43.463-51.523 43.023-90.867-.528-45.21-23.139-121.219-168.395-121.984-54.988-.319-95.811 9.629-124.757 30.608-28.946 20.979-43.375 51.586-43.023 90.866.528 45.274 23.051 121.22 168.484 122.049 54.9.318 95.723-9.693 124.669-30.672Zm-523.574 609.731c28.946-20.979 43.375-51.523 42.935-90.866 0-1.913.176-286.756 0-288.797-2.376-45.593-29.298-115.289-168.308-115.99-54.988-.32-95.81 9.628-124.757 30.607-27.538 20.023-42.054 48.718-43.022 85.383v288.286c.528 45.274 23.05 121.22 168.395 122.049 54.988.319 95.811-9.693 124.757-30.672Z"/></g><circle cx="6003.8" cy="10.006" r="1.86" style="fill-opacity:.08" transform="matrix(200.855 0 0 145.574 -1190900 144.649)"/><circle cx="6003.8" cy="10.006" r="1.86" style="fill-opacity:.08" transform="matrix(200.855 0 0 145.574 -1195320 144.649)"/><circle cx="6003.8" cy="10.006" r="1.86" style="fill-opacity:.08" transform="matrix(200.855 0 0 145.574 -1193110 -1456.66)"/><circle cx="6003.8" cy="10.006" r="1.86" style="fill-opacity:.08" transform="matrix(200.855 0 0 145.574 -1193110 1745.96)"/></g></g></svg>
