<svg viewBox="0 0 22 22" xmlns="http://www.w3.org/2000/svg" xml:space="preserve" style="fill-rule:evenodd;clip-rule:evenodd;stroke-linejoin:round;stroke-miterlimit:2"><g transform="matrix(.00498 0 0 .00687 -52.67 0)"><path style="fill:none" d="M10577.8 0h4418.81v3202.62H10577.8z"/><clipPath id="a"><path d="M10577.8 0h4418.81v3202.62H10577.8z"/></clipPath><g clip-path="url(#a)"><g opacity=".08"><path d="M.832 17.4c-.96.896-.845 3.166-.807 3.58.038.392.351.7.744.732.105.008.32.021.598.021.82 0 2.19-.119 2.933-.847.785-.852.986-2.583.053-3.557-.938-.928-2.684-.711-3.521.07v.001Zm2.305 2.357c-.207.203-.858.323-1.517.35.018-.625.122-1.29.346-1.548.3-.263 1.01-.31 1.231-.092.242.253.19 1.017-.06 1.291v-.001Z" style="fill-rule:nonzero" transform="matrix(84.23035 0 0 61.04777 11877.186 937.891)"/><path d="M13409.841 1758.678c251.343-182.41 347.198-449.983 250.164-697.959l-.252-.794c-18.278-46.396-68.648-82.78-132.747-95.783l-.169-.062c-340.375-68.8-706.693.794-956.772 181.74l-525.345 380.755c-93.833 68.74-93.833 181.006 0 249.746l498.138 361.037c94.76 68.007 249.743 68.007 344.502 0l522.481-378.68Zm-119.186-86.321-522.396 378.618c-14.067 10.256-33.187 15.994-53.15 15.994-19.962 0-39.083-5.738-53.15-15.994l-498.137-361.037c-28.976-21.183-28.976-55.797 0-76.98l525.428-380.817c207.039-149.872 510.352-207.501 792.187-150.483l.168.062c7.75 1.587 13.898 5.982 16.088 11.599l.253.732c80.524 205.487 1.01 427.212-207.29 578.306Zm-385.017 9.279c55.34 0 109.415-19.17 160.88-57.08 59.214-43.588 137.885-131.924 0-233.324-52.138-38.4-104.361-57.141-159.7-57.141-55.34 0-109.5 19.23-160.965 57.08-59.214 43.588-137.885 131.863 0 233.385 52.139 38.4 104.362 57.08 159.701 57.08h.084Zm-491.484-479.286c-36.809-11.538-76.397-17.46-116.49-17.46-163.997.61-298.766 98.287-299.608 217.147 0 29.303 8.255 58.057 24.09 84.43l392.008-284.117Zm917.606 669.389-384.765 278.866 80.693 15.628c8.086.489 16.256.733 24.343.733 164.586 0 300.197-97.738 301.207-217.025l-21.478-78.202Z"/></g><circle cx="6003.8" cy="10.006" r="1.86" style="fill-opacity:.08" transform="matrix(200.855 0 0 145.574 -1190900 144.649)"/><circle cx="6003.8" cy="10.006" r="1.86" style="fill-opacity:.08" transform="matrix(200.855 0 0 145.574 -1195320 144.649)"/><circle cx="6003.8" cy="10.006" r="1.86" style="fill-opacity:.08" transform="matrix(200.855 0 0 145.574 -1193110 -1456.66)"/><circle cx="6003.8" cy="10.006" r="1.86" style="fill-opacity:.08" transform="matrix(200.855 0 0 145.574 -1193110 1745.96)"/></g></g></svg>
