<svg viewBox="0 0 59 44" xmlns="http://www.w3.org/2000/svg" xml:space="preserve" style="fill-rule:evenodd;clip-rule:evenodd;fill:rgba(0,82,255,1);stroke-linejoin:round;stroke-miterlimit:2">
    <g transform="matrix(1,0,0,1,-2.70322,-10.095)">
        <g transform="matrix(1,0,0,1,0.330699,-2.42697)">
            <path d="M60.966,16.902C60.966,14.483 59.005,12.522 56.586,12.522C45.72,12.522 17.619,12.522 6.753,12.522C4.334,12.522 2.373,14.483 2.373,16.902C2.373,16.903 2.373,16.904 2.373,16.906C2.373,19.325 4.334,21.286 6.753,21.286C17.619,21.286 45.72,21.286 56.586,21.286C59.005,21.286 60.966,19.325 60.966,16.906C60.966,16.904 60.966,16.903 60.966,16.902Z"/>
        </g>
        <g transform="matrix(1,0,0,1,0.330699,32.6193)">
            <path d="M60.966,16.902C60.966,14.483 59.005,12.522 56.586,12.522C45.72,12.522 17.619,12.522 6.753,12.522C4.334,12.522 2.373,14.483 2.373,16.902C2.373,16.903 2.373,16.904 2.373,16.906C2.373,19.325 4.334,21.286 6.753,21.286C17.619,21.286 45.72,21.286 56.586,21.286C59.005,21.286 60.966,19.325 60.966,16.906C60.966,16.904 60.966,16.903 60.966,16.902Z"/>
        </g>
        <g transform="matrix(1,0,0,1,0.330699,15.0962)">
            <path d="M60.966,16.902C60.966,14.483 59.005,12.522 56.586,12.522C45.72,12.522 17.619,12.522 6.753,12.522C4.334,12.522 2.373,14.483 2.373,16.902C2.373,16.903 2.373,16.904 2.373,16.906C2.373,19.325 4.334,21.286 6.753,21.286C17.619,21.286 45.72,21.286 56.586,21.286C59.005,21.286 60.966,19.325 60.966,16.906C60.966,16.904 60.966,16.903 60.966,16.902Z"/>
        </g>
    </g>
</svg>
