<svg viewBox="0 0 331 272" xmlns="http://www.w3.org/2000/svg" xml:space="preserve" style="fill-rule:evenodd;clip-rule:evenodd;stroke-linecap:round;stroke-linejoin:round"><path d="M150.786 203.398c-21.882 13.201-37.135 21.486-38.377 19.334-.314-.544 14.621-9.195 36.758-21.904m-20.653-32.778c-29.941 18.232-51.743 30.034-53.832 26.417-1.151-1.994 20.04-14.635 50.401-31.862M222.172 8.873c-18.884 13.454-59.417 42.286-59.313 42.466 1.614 2.795 85.345-49.353 85.38-49.294m-72.633 240.743c30.917-18.882 89.825-55.344 91.431-52.563 1.9 3.291-60.45 43.267-86.643 60.162-6.982 4.503-11.394 7.366-11.341 7.46.183.315 5.017-2.36 11.994-6.423 18.944-11.03 53.683-32.287 54.025-31.693.607 1.05-30.588 24.118-49.832 38.347-8.59 6.352-14.799 10.943-14.745 11.035.217.38 15.901-9.2 15.91-9.185m-61.322-97.323c31.57-17.914 73.032-40.775 109.575-61.77 28.148-17.937 53.75-33.968 70.448-43.156 10.191-7.227 15.739-12.428 14.48-14.608-1.066-1.846-10.153 1.987-24.287 9.454-17.351 11.036-43.389 25.807-71.734 41.567-34.592 20.907-72.37 44.396-102.114 62.748-31.196 19.247-53.556 32.843-54.117 31.87-1.215-2.104 5.174-7.478 16.628-15.033 9.829-5.049 22.066-11.795 35.748-19.6 20.72-11.822 44.762-26.08 68.783-40.574 11.781-6.508 23.615-13.041 35.072-19.411 27.983-16.912 53.884-32.136 71.734-41.567 14.519-9.233 22.961-15.857 21.576-18.255 0 0-64.115 40.457-128.382 79.233-24.722 13.657-49.261 27.235-69.734 39.064-13.868 8.013-25.87 15.223-34.797 21.11-14.357 7.378-23.575 11.136-24.64 9.291-.108-.186 24.205-13.85 57.733-33.104 75.601-43.412 198.059-115.241 192.554-124.776-4.844-8.392-122.394 70.746-197.297 117.247-33.934 21.067-59.115 35.436-61.126 31.954-1.423-2.465 22.82-18.562 56.418-39.425C179.307 90.34 293.621 24.105 292.464 22.101c-1.234-2.137-11.936 2.704-28.301 11.761-33.788 23.149-94.852 59.467-144.592 88.381-4.9 3.056-9.679 6.03-14.31 8.902-35.962 22.299-63.051 38.453-64.355 36.194 0 0 27.423-15.444 64.075-36.637a7285.58 7285.58 0 0 0 14.59-8.459c49.243-30.711 109.75-69.101 144.592-88.381 16.802-11.511 26.866-19.77 25.439-22.244-4.807-8.323-115.217 63.2-190.199 110.231-38.036 23.857-66.955 41.411-68.33 39.03-2.663-4.612 25.512-23.653 63.483-46.723 72.132-43.824 179.615-102.189 178.58-103.983-.278-.483-107.297 61.737-178.985 103.341-36.087 20.943-63.221 36.663-63.293 36.538-.766-1.326 25.53-18.47 60.725-40.615C160.85 65.855 264.591 2.902 264.591 2.902c-4.532-7.85-107.662 55.922-177.343 99.655-35.734 22.427-62.671 39.584-62.96 39.082 0 0 30.066-19.694 61.989-40.622 36.143-23.692 74.668-48.965 74.635-49.022-1.262-2.187-40.897 21.165-78.076 43.561-33.227 20.014-64.492 39.265-64.715 38.879-1.77-3.066 28.264-22.958 61.58-43.855 40.177-25.2 85.127-51.861 84.891-52.27-.262-.453-45.399 25.752-86.512 49.697-34.407 20.038-65.995 38.493-66.056 38.387-.399-.69 30.946-19.303 65.112-39.884 41.252-24.85 86.618-52.571 85.174-55.071-.585-1.015-45.763 27.339-86.941 52.265-33.907 20.525-65.102 38.727-66.492 36.319-1.394-2.415 30.234-20.788 63.891-40.446 38.351-22.401 79.338-46.471 77.031-50.467-2.256-3.908-42.296 22.387-79.555 46.461-32.179 20.791-62.282 39.925-64.229 36.552-.009-.015 30.611-18.329 63.015-38.479 37.176-23.116 76.702-48.649 74.944-51.692-2.379-4.12-42.936 22.861-78.553 45.965-27.525 17.854-52.101 33.393-53.799 30.45-1.607-2.782 23.094-18.11 50.968-34.944 35.525-21.455 76.205-45.356 74.18-48.862-1.927-3.338-41.305 21.79-76.996 44.393C30.322 77.606 3.379 94.539 2.095 92.315c-1.893-3.28 24.687-21.259 53.654-39.748 33.48-21.371 70.149-43.422 69.686-44.225-1.838-3.183-39.504 20.121-72.039 40.489C28.534 64.396 6.668 78.247 6.09 77.247c-.723-1.253 21.269-15.299 45.775-30.845C82.584 26.916 117.252 5.073 116.113 3.1c-1.027-1.779-36.581 21.146-66.531 39.679C28.194 56.015 9.663 67.01 8.602 65.171c-.287-.497 18.426-12.313 38.993-25.546C72.967 23.302 101.16 4.822 99.979 2.778 98.652.479 69.201 19.922 44.898 35.345 28.151 45.972 13.849 54.691 12.902 53.052c-.321-.555 14.264-10.022 30.16-20.621C62.428 19.518 83.739 4.927 82.455 2.703c-.145-.25-24.513 14.552-42.358 25.022-10.163 5.962-18.21 10.52-18.459 10.09-.289-.501 7.875-7.411 15.945-14.08 7.765-6.418 15.443-12.611 15.419-12.653-.237-.412-17.153 9.902-17.153 9.902m98.407 156.179c53.798-34.162 141.908-89.017 177.784-105.106 6.325-4.773 9.656-8.035 8.966-9.23-4.786-8.29-119.715 65.321-189.946 109.264-30.606 19.15-52.723 32.665-53.513 31.296-1.2-2.077 20.337-16.19 51.132-35.075l-.165-.262c30.946-18.844 70.586-44.557 106.144-67.215 29.087-16.712 55.057-32.241 70.448-43.156 11.47-6.311 18.738-9.393 19.746-7.648 1.3 2.252-123.335 73.615-196.173 118.281m7.539 11.964c69.541-40.828 195.434-105.403 191.593-112.055-1.039-1.801-6.756-.207-15.771 3.836-28.873 21.791-120.217 75.133-176.343 107.393-26.855 15.435-45.647 26.043-45.647 26.043s18.051-11.721 44.206-28.33m9.424 14.957a17770.738 17770.738 0 0 0 63.666-38.716c17.902-11.195 36.015-22.417 52.561-32.377 36.351-22.616 64.281-40.634 63.419-42.127-3.27-5.663-115.14 68.754-182.222 109.132-27.652 16.644-47.693 27.503-49.379 24.584-2.039-3.533 16.739-16.045 44.493-32.34m12.949 20.552c21.34-12.251 49.38-28.278 76.879-44.437 28.103-17.739 55.706-35.061 75.213-46.285 17.106-11.481 27.607-19.977 26.018-22.729-2.301-3.985-31.062 11.794-67.37 33.65-16.422 10.217-34.572 21.378-52.561 32.377-22.581 14.121-44.819 28.197-63.101 39.613-25.224 15.751-42.916 26.439-43.621 25.219-.04-.07 17.643-10.726 43.056-26.116m7.106 11.278c21.12-12.742 48.415-30.063 75.26-47.007 28.249-16.6 55.928-33.34 75.213-46.285 15.801-9.091 26.291-14.18 27.414-12.235 1.349 2.336-17.195 15.035-43.72 31.695-20.241 11.743-45.32 27.2-69.758 42.444-22.382 13.367-44.185 26.26-61.231 36.432-20.362 12.15-33.941 20.421-33.616 20.985.569.985 14.297-7.179 34.449-19.664m0 0c16.933-10.491 38.402-24.034 60.398-37.753 24.358-14.548 49.402-29.659 69.758-42.444 23.71-13.755 40.783-22.414 42.382-19.643 3.571 6.184-118.261 75.536-168.219 106.695-13.277 8.281-21.478 13.864-20.908 14.852 0 0 8.463-5.349 21.693-13.606m0 0c46.636-29.106 152.498-94.344 155.695-88.808 4.095 7.093-110.474 69.349-151.889 94.848-9.498 5.848-15.149 9.762-14.644 10.637.229.396 6.257-3.046 15.812-8.784m0 0c39.027-23.438 136.885-85.194 139.405-80.83 1.182 2.047-93.158 59.957-135.369 87.237-12.38 8-20.275 13.367-19.959 13.914l21.064-12.161m0 0 122.249-70.58c1.968 3.41-80.063 54.738-117.266 78.488-10.993 7.017-18.071 11.627-17.922 11.886.142.245 7.58-4.237 18.529-10.923m11.479-224.724s14.217-8.409 14.399-8.314c.78.409-27.49 25.218-27.538 25.666-.005.044 22.861-14.428 39.795-24.334 9.662-5.653 17.401-9.822 17.893-8.972.007.013-3.73 2.68-9.462 6.763" style="fill:none;fill-rule:nonzero;stroke:red;stroke-width:4px"/></svg>