<svg viewBox="0 0 622 334" xmlns="http://www.w3.org/2000/svg" xml:space="preserve" style="fill-rule:evenodd;clip-rule:evenodd;stroke-linejoin:round;stroke-miterlimit:2"><path d="M44.766 180.462a.641.641 0 0 1-.413-.133L1.011 146.655a2.337 2.337 0 0 1-.902-1.834l-.107-25.269c-.001-.32.101-.632.291-.89l17.322-23.519a1.476 1.476 0 0 0-.456-2.157L6.502 86.905a1.254 1.254 0 0 1-.632-1.09l.004-25.635c0-.614.181-1.214.52-1.725l34.239-51.64a1.477 1.477 0 0 1 1.092-.655L103.613.237a6.364 6.364 0 0 1 4.46 1.272l28.791 21.928a1.202 1.202 0 0 0 1.931-.967l-.052-5.826a.554.554 0 0 1 .602-.557l72.73 6.324a.967.967 0 0 1 .882.982l-.246 12.303a1.31 1.31 0 0 0 1.154 1.328l47.263 5.69a1.29 1.29 0 0 0 1.442-1.305l-.302-15.393c-.009-.49.337-.915.819-1.005l80.721-15.058c.283-.053.575-.005.827.133l39.483 21.778a1.314 1.314 0 0 0 1.902-.806l4.928-18.161a.803.803 0 0 1 .911-.581l81.313 13.95a.933.933 0 0 0 1.089-.923l-.031-6.215a.63.63 0 0 1 .532-.624L556.98 5.676a.985.985 0 0 1 .654.127l55.862 33.284a.72.72 0 0 1 .351.609l.271 20.119-10.605 62.041c-.068.397.078.801.384 1.063l16.918 14.507a.54.54 0 0 1 .189.404l.328 27.844a.632.632 0 0 1-.339.568l-50.491 26.467a.478.478 0 0 1-.483-.024l-29.716-19.502 13.654 20.779c.133.202.203.439.202.681l-.574 122.325a2.853 2.853 0 0 1-2.518 2.819L449.54 331.754c-.56.066-1.1-.231-1.346-.739l-16.779-34.719-2.707 34.88a.691.691 0 0 1-.73.636l-49.836-3.024a1.034 1.034 0 0 1-.809-.479l-12.117-19.206-4.767 21.608a1.05 1.05 0 0 1-1.065.825l-62.521-2.279a.79.79 0 0 1-.761-.762l-.544-14.974L225 332.893a1.2 1.2 0 0 1-1.119-.264l-51.139-45.854a1.621 1.621 0 0 0-2.221.051l-19.127 18.829a.563.563 0 0 1-.369.16l-28.214 1.164a1.208 1.208 0 0 0-1.155 1.134l-1.41 23.562a.943.943 0 0 1-.949.887l-62.803-.51a.98.98 0 0 1-.972-.961l-.692-34.292.001-.031 7.825-116.967-17.89.661Z"/><path d="M18.514 61.781a.813.813 0 0 1-.257-1.149l29.124-43.403a1.07 1.07 0 0 1 .784-.468l53.55-5.159c.476-.046.952.089 1.333.379l39.255 29.879a1.724 1.724 0 0 1 .304 2.452l-18.841 23.604a.638.638 0 0 1-.859.128L85.138 42.198 74.013 59.932l64.045 42.235c.424.28.587.823.385 1.29l-21.556 49.927a.164.164 0 0 1-.147.099l-64.292 1.321a.176.176 0 0 1-.117-.041l-38.949-32.537a1.114 1.114 0 0 1-.187-1.511l21.324-29.259a1.26 1.26 0 0 1 1.825-.229l36.591 30.296 13.889-18.791-68.31-40.951Z" style="fill:#009edb"/><path d="M149.085 33.115a1.395 1.395 0 0 1-.559-1.316l.313-2.274a2.17 2.17 0 0 1 2.358-1.864l46.797 4.534a2.89 2.89 0 0 1 2.57 3.349l-13.465 80.703 37.224-1.654-2.923-64.516a1.563 1.563 0 0 1 1.768-1.617l47.495 6.391a2.645 2.645 0 0 1 2.257 3.059l-11.684 70.004a3.858 3.858 0 0 1-.907 1.912l-21.941 24.973a4.859 4.859 0 0 1-3.779 1.65l-60.196-1.607a3.87 3.87 0 0 1-2.5-1.006l-28.368-25.823a1.437 1.437 0 0 1-.469-1.024l-.086-3.181a.94.94 0 0 1 .075-.395l8.041-18.85a7.28 7.28 0 0 0-2.099-8.5l-3.641-2.965a1.254 1.254 0 0 1-.459-1.05l2.127-34.121 8.188-10.422a7.732 7.732 0 0 0-1.521-11.021l-4.616-3.369Z" style="fill:#ffd200"/><path d="M275.204 33.715a1.088 1.088 0 0 0-.881 1.135l.517 8.5c.05.813.681 1.47 1.491 1.552l7.707.779a1.625 1.625 0 0 1 1.435 1.886l-5.99 35.119a.96.96 0 0 0-.006.273l9.332 74.665a1.573 1.573 0 0 0 1.74 1.368l34.07-3.904c.529-.061.921-.52.899-1.052l-1.296-31.058a.83.83 0 0 1 .785-.864l31.759-1.687a.747.747 0 0 0 .475-.203l26.562-24.966a.992.992 0 0 0 .302-.585l6.446-46.215a1.534 1.534 0 0 0-.775-1.553l-46.488-25.852a1.61 1.61 0 0 0-1.084-.173l-67 12.835Zm46.441 19.814a1.275 1.275 0 0 0-1.728 1.267l2.368 38.515a.994.994 0 0 0 1.151.919l22.24-3.613c.429-.07.763-.408.829-.837l3.74-24.603a.778.778 0 0 0-.49-.844l-28.11-10.804Z" style="fill:#e22b0a"/><path d="M400.568 24.485a2.116 2.116 0 0 0-2.394 1.481l-3.069 10.343a1.41 1.41 0 0 0 .685 1.643l5.504 2.955a2.244 2.244 0 0 1 1.162 2.288l-7.849 56.214a1.461 1.461 0 0 1-.435.852l-14.822 14.185 5.806 38.367a1.204 1.204 0 0 0 1.151 1.023l95.242 3.037a1.262 1.262 0 0 0 1.29-1.441l-4.881-34.224a.772.772 0 0 0-.873-.653l-47.688 6.969-3.707-22.745 39.485 6.04 3.65-28.412-40.225-.599 5.253-21.348 43.387 13.164a1.497 1.497 0 0 0 1.908-1.162l5.89-32.042a1.036 1.036 0 0 0-.839-1.207l-83.631-14.728Z" style="fill:#46ad37"/><path d="M488.472 29.024a.915.915 0 0 1 .015-1.806l65.734-10.286a2.17 2.17 0 0 1 1.446.28l45.532 27.143a2.5 2.5 0 0 1 1.187 2.555l-7.924 47.927a1.385 1.385 0 0 1-.667.97l-21.622 12.662a.63.63 0 0 0-.094 1.018l34.924 30.209a1.564 1.564 0 0 1-.405 2.618l-39.481 17.002a2.37 2.37 0 0 1-2.943-.915l-28.414-45.198a.843.843 0 0 0-1.559.484l1.678 40.76a2.403 2.403 0 0 1-2.193 2.492l-32.701 2.839a1.498 1.498 0 0 1-1.62-1.333l-9.19-85.552a2.019 2.019 0 0 1 .02-.565l7.163-39.979a1.753 1.753 0 0 0-1.428-2.038l-7.458-1.287Zm44.169 21.141.536 43.173 24.78-4.451 4.205-28.037-29.521-10.685Z" style="fill:#ffd200"/><path d="M73.717 166.864a1.982 1.982 0 0 1 1.984-1.892l67.764.122c.356.001.702.108.995.309l30.388 20.787c.479.328.776.86.802 1.439l2.205 48.717c.023.492-.169.97-.525 1.311l-30.093 28.813a1.397 1.397 0 0 1-.906.387l-36.285 1.559a1.813 1.813 0 0 0-1.735 1.791l-.255 21.759a1.472 1.472 0 0 1-1.461 1.454l-36.59.255a1.988 1.988 0 0 1-1.998-2.077l5.71-124.734Zm41.616 36.828-1.357 21.562 12.808 2.09 12.683-17.56-24.134-6.092Z" style="fill:#e22b0a"/><path d="M187.2 189.05a1.637 1.637 0 0 1 .711-1.455l32.211-21.991a1.955 1.955 0 0 1 1.167-.339l45.88 1.522a1.89 1.89 0 0 1 1.402.694l37.376 45.719c.278.341.395.785.321 1.218l-10.075 58.646a2.751 2.751 0 0 1-1.997 2.191l-64.607 17.359c-.706.19-1.46.022-2.019-.449l-48.043-40.47 10.252-9.251c.475-.428.728-1.05.688-1.689L187.2 189.05Zm44.402 20.567-8.991 19.71 15.589 10.539 16.255-6.43-.273-19.031-22.58-4.788Z" style="fill:#46ad37"/><path d="M312.125 292.119a2.53 2.53 0 0 1-2.337-2.978l22.562-123.903a1.476 1.476 0 0 1 1.472-1.211l24.184.335a1.844 1.844 0 0 1 1.565.911l23.366 39.797 3.018-39.101a1.027 1.027 0 0 1 1.18-.935l37.541 5.777a1.58 1.58 0 0 1 1.335 1.676l-8.633 119.557a1.68 1.68 0 0 1-1.763 1.556l-31.323-1.656a1.653 1.653 0 0 1-1.318-.782l-24.655-39.942-7.119 41.13a2.368 2.368 0 0 1-2.475 1.96l-36.6-2.191Z" style="fill:#ffd200"/><path d="M437.596 191.56a2.196 2.196 0 0 1 .89-1.587l36.697-26.886a2.387 2.387 0 0 1 1.588-.456l41.857 3.098c.602.045 1.153.35 1.51.836l16.077 21.867a1.998 1.998 0 0 1-.614 2.915l-27.215 15.635c-.47.271-1.051.26-1.511-.028l-11.617-7.27-17.584 5.495-10.683 26.084 11.206 23.247 32.264-4.082a1.785 1.785 0 0 0 1.559-1.858l-.114-2.377a1.63 1.63 0 0 0-1.766-1.544l-22.725 1.953 2.132-34.274 49.983.172a1.926 1.926 0 0 1 1.919 1.929l-.104 66.11a1.897 1.897 0 0 1-1.651 1.878l-82.458 10.81a3.2 3.2 0 0 1-3.289-1.768l-20.797-42.615a2.574 2.574 0 0 1-.251-1.343l4.697-55.941Z" style="fill:#009edb"/></svg>