<svg viewBox="0 0 334 334" xmlns="http://www.w3.org/2000/svg" xml:space="preserve" style="fill-rule:evenodd;clip-rule:evenodd;stroke-miterlimit:1.5"><path style="fill:none" d="M0 0h333.071v333.071H0z"/><clipPath id="a"><path d="M0 0h333.071v333.071H0z"/></clipPath><g clip-path="url(#a)"><path d="M328.634-8.887-4.435 324.182M315.311-8.887-4.435 310.859M301.988-8.887-4.435 297.537M288.666-8.887-4.435 284.214M275.343-8.887-4.435 270.891M262.02-8.887-4.435 257.568M248.697-8.887-4.435 244.245M235.374-8.887-4.435 230.922M222.051-8.887-4.435 217.6M208.729-8.887-4.435 204.277M195.406-8.887-4.435 190.954M182.083-8.887-4.435 177.631M168.76-8.887-4.435 164.308M155.437-8.887-4.435 150.985M142.114-8.887-4.435 137.663M128.792-8.887-4.435 124.34M115.469-8.887-4.435 111.017M102.146-8.887-4.435 97.694M88.823-8.887-4.435 84.371M75.5-8.887-4.435 71.048M62.177-8.887-4.435 57.726M48.855-8.887l-53.29 53.29M35.532-8.887-4.435 31.08M22.209-8.887-4.435 17.757M8.886-8.887-4.435 4.434M341.96 310.859l-26.647 26.648M341.96 297.537l-39.97 39.97M341.96 284.214l-53.293 53.293M339.126 273.725l-63.782 63.782M337.986 261.543l-75.964 75.964M337.933 248.273l-89.234 89.234M339.185 233.698 235.376 337.507M341.96 217.6 222.053 337.507M341.96 204.277l-133.23 133.23M340.055 192.859 195.407 337.507M341.96 177.631 182.085 337.507M339.733 166.535 168.762 337.507M338.623 154.323 155.439 337.507M338.135 141.488 142.116 337.507M338.135 128.165 128.793 337.507M338.135 114.843 115.47 337.507M338.135 101.52 102.148 337.507M338.135 88.197l-249.31 249.31M338.135 74.874 75.502 337.507M338.135 61.551 62.179 337.507M338.135 48.228 48.856 337.507M338.135 34.905 35.533 337.507M338.135 21.583 22.211 337.507M336.777 9.618 8.888 337.507M336.724-3.652-4.435 337.507M337.768 328.374l-9.132 9.133" style="fill:none;stroke:red;stroke-width:3px"/></g></svg>
