<svg viewBox="0 0 32 32" xmlns="http://www.w3.org/2000/svg" xml:space="preserve" style="fill-rule:evenodd;clip-rule:evenodd;stroke-linejoin:round;stroke-miterlimit:2"><path d="m.492-27.211-.176 4.957 8.754.176L6.258-3.199h8.262l-.352-18.246 6.785.351-.316-6.644-20.145.527Zm-1.898 6.645.281-8.297 23.379-.598.492 10.16-6.82-.351.316 18.14H4.289l2.813-18.914-8.508-.14Z" style="fill:#2c82ff;fill-rule:nonzero;stroke:#2c82ff;stroke-width:1.03px" transform="scale(.97415) rotate(-12 167.791 -24.86)"/><path d="m2.673 5.881 1.375 6.72 7.904-1.794 1.604 18.902 9.012-1.68-3.322-18.368 6.453-1.031-1.718-7.561L2.673 5.881Z" style="fill:#2c82ff;stroke:#000;stroke-width:1.03px;stroke-linecap:round;stroke-miterlimit:1.5" transform="matrix(.97415 0 0 .97415 .096 .891)"/></svg>